<?xml version="1.0" encoding="UTF-8"?>
<svg id="Layer_2" xmlns="http://www.w3.org/2000/svg" viewBox="0 0 296.75 296.75">
  <defs>
    <style>
      .cls-1 {
        fill: #fff;
      }

      .cls-2 {
        fill: #ea232b;
      }
    </style>
  </defs>
  <circle class="cls-2" cx="148.38" cy="148.37" r="148"/>
  <g id="Layer_1-2">
    <g>
      <g>
        <path class="cls-1" d="M36.51,172.34v2.67c0,2.84.5,3.56,1.57,3.56,1,0,1.35-1,1.35-2.77,0-3.56-.43-4.62-4.77-8.67-5.78-5.41-8.48-8.18-8.48-15.08,0-7.61,2.85-13.44,12.04-13.44,10.12,0,11.9,6.19,11.9,12.59v1.75c0,.64-.52,1.17-1.17,1.17h-7.64c-.64,0-1.17-.52-1.17-1.17v-2.46c0-2.42-.43-3.06-1.5-3.06-.85,0-1.35.71-1.35,2.84,0,2.49.43,3.48,3.99,6.68,6.48,5.76,9.55,8.75,9.55,16.28,0,8.67-2.64,14.15-12.68,14.15-8.98,0-12.4-4.91-12.4-13.37v-1.68c0-.64.52-1.17,1.17-1.17h8.42c.64,0,1.17.52,1.17,1.17h0Z"/>
        <path class="cls-1" d="M79.75,151.7v22.61c0,9.6-5.27,13.08-13.54,13.08s-12.68-3.77-12.68-13.08v-23.18c0-8.75,5.41-12.51,12.97-12.51s13.25,3.84,13.25,13.08ZM64.86,150.35v25.31c0,1.78.5,2.84,1.71,2.84,1.07,0,1.71-.92,1.71-2.84v-25.38c0-2.13-.5-2.77-1.78-2.77-1.07,0-1.64.71-1.64,2.84Z"/>
        <path class="cls-1" d="M108.54,170.28v2.6c0,7.32-1.57,14.51-13.25,14.51-6.34,0-12.61-2.2-12.61-13.51v-22.11c0-10.1,5.56-13.15,12.9-13.15,11.61,0,12.97,7.75,12.97,13.08v3.24c0,.64-.52,1.17-1.17,1.17h-9.14c-.64,0-1.17-.52-1.17-1.17v-4.45c0-1.92-.14-3.06-1.5-3.06-1.28,0-1.57.92-1.57,3.06v24.82c0,2.35.28,3.2,1.42,3.2,1.28,0,1.64-.85,1.64-3.41v-4.81c0-.64.52-1.17,1.17-1.17h9.14c.64,0,1.17.52,1.17,1.17h0Z"/>
        <path class="cls-1" d="M122.52,140.49v45.03c0,.64-.52,1.17-1.17,1.17h-8.92c-.64,0-1.17-.52-1.17-1.17v-45.03c0-.64.52-1.17,1.17-1.17h8.92c.64,0,1.17.52,1.17,1.17Z"/>
        <path class="cls-1" d="M137.07,177.89l-.44,7.63c-.04.64-.59,1.16-1.23,1.16h-9.21c-.64,0-1.11-.52-1.04-1.16l4.81-45.04c.07-.64.65-1.16,1.29-1.16h15.69c.64,0,1.22.52,1.29,1.16l4.74,45.04c.07.64-.4,1.16-1.05,1.16h-9.35c-.64,0-1.2-.52-1.23-1.16l-.44-7.63c-.04-.64-.59-1.16-1.23-1.16h-1.37c-.64,0-1.2.52-1.23,1.16h0ZM140.27,166.18c-.25-4.04-.85-12.64-1.12-16.23-.05-.64-.2-1.16-.34-1.16s-.27.52-.3,1.16c-.17,3.37-.66,11.72-.89,16.23-.03.64.47,1.16,1.11,1.16h.44c.64,0,1.14-.52,1.1-1.16Z"/>
        <path class="cls-1" d="M156.77,139.32h8.99c.64,0,1.17.52,1.17,1.17v35.43c0,.64.52,1.17,1.17,1.17h8.28c.64,0,1.11.52,1.03,1.16l-.87,7.29c-.08.64-.66,1.16-1.3,1.16h-18.47c-.64,0-1.17-.52-1.17-1.17v-45.03c0-.64.52-1.17,1.17-1.17h0Z"/>
        <path class="cls-1" d="M191.47,140.49v45.03c0,.64-.52,1.17-1.17,1.17h-8.92c-.64,0-1.17-.52-1.17-1.17v-45.03c0-.64.52-1.17,1.17-1.17h8.92c.64,0,1.17.52,1.17,1.17Z"/>
        <path class="cls-1" d="M205.18,172.34v2.67c0,2.84.5,3.56,1.57,3.56,1,0,1.35-1,1.35-2.77,0-3.56-.43-4.62-4.77-8.67-5.77-5.4-8.48-8.18-8.48-15.07,0-7.61,2.85-13.44,12.04-13.44,10.12,0,11.9,6.19,11.9,12.59v1.75c0,.64-.52,1.17-1.17,1.17h-7.64c-.64,0-1.17-.52-1.17-1.17v-2.46c0-2.42-.43-3.06-1.5-3.06-.85,0-1.35.71-1.35,2.84,0,2.49.43,3.48,3.99,6.68,6.48,5.76,9.55,8.75,9.55,16.28,0,8.67-2.64,14.15-12.68,14.15-8.98,0-12.4-4.91-12.4-13.37v-1.68c0-.64.52-1.17,1.17-1.17h8.42c.64,0,1.17.52,1.17,1.17h0Z"/>
        <path class="cls-1" d="M225.79,148.64h-3.29c-.64,0-1.17-.52-1.17-1.17v-6.98c0-.64.52-1.17,1.17-1.17h20.18c.64,0,1.17.52,1.17,1.17v6.98c0,.64-.52,1.17-1.17,1.17h-3.29c-.64,0-1.17.52-1.17,1.17v35.71c0,.64-.52,1.17-1.17,1.17h-8.92c-.64,0-1.17-.52-1.17-1.17v-35.71c0-.64-.52-1.17-1.17-1.17h0Z"/>
        <path class="cls-1" d="M256.68,172.34v2.67c0,2.84.5,3.56,1.57,3.56,1,0,1.35-1,1.35-2.77,0-3.56-.43-4.62-4.77-8.67-5.77-5.4-8.48-8.18-8.48-15.07,0-7.61,2.85-13.44,12.04-13.44,10.12,0,11.9,6.19,11.9,12.59v1.75c0,.64-.52,1.17-1.17,1.17h-7.64c-.64,0-1.17-.52-1.17-1.17v-2.46c0-2.42-.43-3.06-1.5-3.06-.85,0-1.35.71-1.35,2.84,0,2.49.43,3.48,3.99,6.68,6.48,5.76,9.55,8.75,9.55,16.28,0,8.67-2.64,14.15-12.68,14.15-8.98,0-12.4-4.91-12.4-13.37v-1.68c0-.64.52-1.17,1.17-1.17h8.42c.64,0,1.17.52,1.17,1.17h0Z"/>
      </g>
      <g>
        <path class="cls-1" d="M27,108.51h10.52c8.98,0,13.27,5.39,13.27,12.13s-4.22,12.49-13.12,12.49h-10.67c-.64,0-1.17-.52-1.17-1.17v-22.29c0-.64.52-1.17,1.17-1.17h0ZM36.2,126.85h.5c2.9,0,3.9-1.61,3.9-6.21s-.89-5.85-3.72-5.85h-.59c-.33,0-.59.52-.59,1.17v9.73c0,.64.22,1.17.5,1.17h0Z"/>
        <path class="cls-1" d="M71.46,124h-8.07c-.64,0-1.17.52-1.17,1.17v.31c0,.64.52,1.17,1.17,1.17h9.54c.64,0,1.09.52.98,1.15l-.67,4.19c-.1.64-.71,1.15-1.35,1.15h-17.9c-.64,0-1.17-.52-1.17-1.17v-22.29c0-.64.52-1.17,1.17-1.17h17.9c.64,0,1.17.52,1.17,1.17v4.16c0,.64-.52,1.17-1.17,1.17h-8.5c-.64,0-1.17.52-1.17,1.17v.17c0,.64.52,1.17,1.17,1.17h8.07c.64,0,1.17.52,1.17,1.17v4.16c0,.64-.52,1.17-1.17,1.17v-.02Z"/>
        <path class="cls-1" d="M96.14,116.1c.02-.64-.01-1.16-.07-1.16s-.18.52-.27,1.15c-.66,4.77-1.38,10.47-2.2,15.89-.1.64-.7,1.15-1.34,1.15h-5.07c-.64,0-1.23-.52-1.31-1.16-.73-6.1-1.26-10.42-1.9-15.74-.08-.64-.2-1.16-.28-1.16s-.11.52-.08,1.16c.15,2.85.29,6.75.29,10.43v5.29c0,.64-.52,1.17-1.17,1.17h-6.25c-.64,0-1.17-.52-1.17-1.17v-22.29c0-.64.52-1.17,1.17-1.17h11.32c.64,0,1.22.52,1.28,1.16.27,2.78.69,7.23.94,10.28.05.64.15,1.16.23,1.16s.21-.52.3-1.15c.51-3.9.77-6.99,1.24-10.29.09-.64.7-1.15,1.34-1.15h11.07c.64,0,1.17.52,1.17,1.17v22.29c0,.64-.52,1.17-1.17,1.17h-7.1c-.64,0-1.17-.52-1.17-1.17v-5.19c0-2.97.08-7.52.18-10.68h.02Z"/>
        <path class="cls-1" d="M133.94,120.89c0,7.14-4.22,12.88-13.37,12.88s-13.05-6.1-13.05-12.92,4.11-12.99,13.44-12.99c8.69,0,12.98,6.07,12.98,13.03ZM117.67,120.75c0,4.21.64,6.89,3.15,6.89,2.36,0,3.04-2.5,3.04-6.71,0-4.46-.5-6.92-3.11-6.92-2.25,0-3.08,2.36-3.08,6.74Z"/>
        <path class="cls-1" d="M160.29,125.5c-1.16,5.28-5.31,8.27-12.42,8.27-8.37,0-12.66-5.32-12.66-12.7s3.9-13.2,13.12-13.2c7.49,0,11.06,3.88,11.86,8.02.12.63-.37,1.15-1.02,1.15h-7.36c-.64,0-1.19-.53-1.35-1.15-.31-1.21-1.01-1.92-2.29-1.92-2.32,0-2.82,2.61-2.82,6.78,0,3.71.39,6.89,2.79,6.89,1.46,0,2.09-.93,2.4-2.14.16-.62.73-1.15,1.38-1.15h7.39c.64,0,1.11.52.97,1.15h.01Z"/>
        <path class="cls-1" d="M171.38,125.59v6.38c0,.64-.52,1.17-1.17,1.17h-7.18c-.64,0-1.17-.52-1.17-1.17v-22.29c0-.64.52-1.17,1.17-1.17h13.1c6.47,0,9.05,3.28,9.05,6.85,0,2.87-1.55,4.54-3.11,5.39-.57.31-.56.6,0,.93,1.8,1.06,2.72,3.28,2.72,6.39v.61c0,.91.03,2.26.11,3.3.05.64-.38,1.16-1.03,1.16h-7.14c-.64,0-1.35-.49-1.45-1.13-.16-1-.22-2.3-.22-3.87v-1.21c0-1.43-.32-2.5-2.25-2.5h-.72c-.39,0-.72.52-.72,1.17h0ZM172.2,118.57h.82c1.82,0,2.47-.93,2.47-2.14s-.72-2.07-2.5-2.07h-.8c-.44,0-.8.52-.8,1.17v1.88c0,.64.37,1.17.82,1.17h-.01Z"/>
        <path class="cls-1" d="M195.76,130.42l-.34,1.57c-.13.63-.77,1.14-1.41,1.14h-7.18c-.64,0-1.03-.5-.85-1.12l6.27-22.38c.17-.62.84-1.12,1.48-1.12h10.79c.64,0,1.31.5,1.49,1.12l6.47,22.38c.18.62-.2,1.12-.84,1.12h-7.89c-.64,0-1.28-.51-1.41-1.14l-.34-1.57c-.13-.63-.77-1.14-1.41-1.14h-3.42c-.64,0-1.28.51-1.41,1.14ZM200.2,121.64c-.3-1.71-.74-4.01-1.1-5.98-.12-.63-.26-1.15-.31-1.15s-.2.51-.3,1.15c-.36,2.09-.71,4.17-1.05,5.99-.12.63.3,1.14.95,1.14h.85c.64,0,1.08-.51.97-1.15h0Z"/>
        <path class="cls-1" d="M214.63,115h-4.1c-.64,0-1.17-.52-1.17-1.17v-4.16c0-.64.52-1.17,1.17-1.17h20.3c.64,0,1.17.52,1.17,1.17v4.16c0,.64-.52,1.17-1.17,1.17h-3.99c-.64,0-1.17.52-1.17,1.17v15.8c0,.64-.52,1.17-1.17,1.17h-7.53c-.64,0-1.17-.52-1.17-1.17v-15.8c0-.64-.52-1.17-1.17-1.17Z"/>
        <path class="cls-1" d="M243.73,109.67v22.29c0,.64-.52,1.17-1.17,1.17h-7.57c-.64,0-1.17-.52-1.17-1.17v-22.29c0-.64.52-1.17,1.17-1.17h7.57c.64,0,1.17.52,1.17,1.17Z"/>
        <path class="cls-1" d="M270.89,125.5c-1.16,5.28-5.31,8.27-12.42,8.27-8.37,0-12.66-5.32-12.66-12.7s3.9-13.2,13.12-13.2c7.49,0,11.06,3.88,11.86,8.02.12.63-.37,1.15-1.02,1.15h-7.36c-.64,0-1.19-.53-1.35-1.15-.31-1.21-1.01-1.92-2.29-1.92-2.32,0-2.83,2.61-2.83,6.78,0,3.71.39,6.89,2.79,6.89,1.46,0,2.09-.93,2.4-2.14.16-.62.73-1.15,1.38-1.15h7.39c.64,0,1.11.52.97,1.15h.02Z"/>
      </g>
      <g>
        <path class="cls-1" d="M128.26,193.16c-2.28,4.14-4.64,8.26-6.99,12.41-.32.56-1.1,1.01-1.74,1.01h-1.34c-.64,0-1.34.49-1.55,1.1l-.27.76c-.21.61.14,1.1.78,1.1h.69c.64,0,.91.45.6,1.02-.68,1.21-1.35,2.43-2.01,3.64-.31.56-.04,1.02.61,1.02h1.43c.64,0,1.4-.47,1.7-1.04.61-1.19,1.23-2.4,1.87-3.61.3-.57,1.06-1.03,1.71-1.03h3.51c.64,0,1.11.52,1.04,1.16-.13,1.13-.26,2.25-.39,3.37-.07.64.39,1.16,1.04,1.16h1.19c.64,0,1.21-.52,1.26-1.16.54-6.87,1.12-13.68,1.69-20.76.05-.64-.43-1.16-1.08-1.16h-1.99c-.64,0-1.42.46-1.73,1.02h-.03ZM127.56,206.58h-2.29c-.64,0-.92-.46-.62-1.03,1.62-3.04,3.22-6.08,4.78-9.04.3-.57.49-.51.42.13-.31,2.86-.64,5.81-.98,8.78-.07.64-.66,1.16-1.3,1.16h0Z"/>
        <path class="cls-1" d="M179.81,199.27c1.25,0,2.43-1.39,2.43-2.69,0-.89-.65-1.54-1.54-1.54-1.28,0-2.43,1.27-2.43,2.66,0,.89.56,1.57,1.54,1.57Z"/>
        <path class="cls-1" d="M206.27,205.69c-1.39,2.56-2.95,4.32-3.97,4.32s-.43-1.86,1.85-8.08c.22-.6-.12-1.09-.77-1.09h-.69c-.64,0-1.26.28-1.38.62s-.47.15-.99-.23c-.55-.4-1.27-.69-2-.69-2.62,0-4.88,2.49-5.74,5.47-.18.62-.54,1.58-.95,2.07-1.34,1.61-2.75,2.26-4.62,2.26-1.48,0-2.34-.95-2.34-2.6,0-2.19,1.39-4.56,2.76-4.56.75,0,1.06.78.9,1.92-.09.64.24,1.13.89,1.13h.78c.64,0,1.35-.49,1.44-1.13.32-2.37-.91-4.55-3.59-4.55-2.9,0-5.4,2.52-6.11,5.71-.14.63-.46,1.59-.87,2.09-.85,1.05-1.66,1.67-2.27,1.67-1.48,0-.04-3.56,1.67-8.08.23-.6-.11-1.09-.76-1.09h-.75c-.64,0-1.35.49-1.58,1.09-.44,1.19-.87,2.35-1.22,3.44-.2.61-.61,1.57-.97,2.1-1.03,1.5-2.11,2.54-2.83,2.54-.42,0-.65-.3-.65-.77,0-1.18,1.33-4.31,2.42-6.72.26-.59-.04-1.05-.68-1.07-.83-.03-1.83-.09-2.72-.18-.64-.07-1.06-.45-.95-.81s-.34-.65-.98-.65h-.36c-.64,0-1.29.51-1.47,1.13-.24.88-.52,1.77-.84,2.64-.22.6-.43,1.08-.44,1.07s-.25.45-.55,1.02c-1.88,3.42-3.56,4.68-6.19,4.68-1.12,0-1.88-.3-2.32-.84-.41-.49.05-.93.69-.9,2.77.11,5.81-1.48,5.81-4.56,0-1.78-1.25-3.49-3.59-3.49-3.19,0-5.53,2.53-6.24,5.6-.15.63-.47,1.59-.87,2.1-.86,1.09-1.67,1.77-2.31,1.77-.39,0-.62-.24-.62-.62,0-1.27,2.37-4.32,2.31-6.45,0-1.39-1.01-2.4-2.4-2.4-1.17,0-2.51.6-3.55,1.78-.43.48-.57.41-.72-.22-.23-.96-.97-1.57-2.04-1.57-1.17,0-2.37.64-3.52,1.86-.44.47-.57.4-.35-.2l.1-.26c.22-.61-.13-1.1-.77-1.1h-.63c-.64,0-1.34.49-1.54,1.1-1.08,3.17-2.14,6.34-3.22,9.51-.21.61.15,1.1.79,1.1h.69c.64,0,1.32-.5,1.52-1.11,1.15-3.54,3-8.18,5.17-8.18.44,0,.71.36.71.83,0,1-.54,2.4-2.31,7.37-.22.61.13,1.1.78,1.1h.66c.64,0,1.32-.5,1.51-1.11,1.09-3.37,3.05-8.18,5.2-8.18.5,0,.71.33.71.8,0,1.36-2.22,3.91-2.22,6.19,0,1.51.92,2.6,2.7,2.6,1.28,0,2.52-.79,3.61-1.9.45-.46.97-.37,1.37.13.94,1.16,2.47,1.77,4.25,1.77s3.07-.37,4.17-.99c.56-.32,1.25-.71,1.53-.91.14-.11.29-.25.45-.43,1.35-1.6,2.65-3.5,3.77-5.89.27-.58.91-.95,1.46-.87s.78.57.51,1.15c-.91,1.96-1.58,3.57-1.58,5.13s.95,2.81,2.76,2.81c1.03,0,2.07-.58,3.02-1.43.48-.43.83-.28,1.13.29.38.73,1.13,1.14,2.36,1.14s2.42-.76,3.48-1.84c.45-.46.97-.37,1.37.14.87,1.11,2.26,1.7,3.86,1.7,2.33,0,3.98-.68,5.25-1.73.5-.41.97-.29,1.31.26.58.94,1.5,1.47,2.65,1.47s2.01-.45,2.65-1.07c.46-.45.8-.36,1.18.15s1.05.92,1.95.92c2.48,0,4.92-3.23,6.25-5.73.3-.57.22-1.36-.14-1.76s-.88-.24-1.19.33l-.04-.03ZM160.13,204.15c-.02,1.3-1.43,2.2-2.96,2.41-.64.09-1.08-.5-.84-1.1.56-1.43,1.6-2.46,2.79-2.46.65,0,1.04.47,1.01,1.15h0ZM195.36,208.26c0-2.28,1.3-5.03,3.26-5.03.36,0,.71.1,1.01.27.51.29.62,1.21.42,1.82-1.07,3.16-2.15,4.69-3.32,4.69-.95,0-1.36-.8-1.36-1.75h0Z"/>
        <path class="cls-1" d="M112.81,195.83l-.27-.76c-.21-.61-.91-1.1-1.55-1.1h-3.46c-.52,0-1.13.49-1.36,1.09-.97,2.61-1.92,5.29-2.77,7.62-.22.61-.41,1.09-.42,1.08s-.27.46-.78.86c-.42.33-.9.53-1.41.59-.64.08-1.16-.13-1.16-.2v-.12c0-2.19-1.36-4.35-3.97-4.35-3.94,0-6.7,3.88-6.7,7.99,0,2.49,1.54,4.32,4.06,4.32,2.71,0,4.77-1.82,5.83-4.2.26-.59.92-1,1.57-1.06.04,0,.08,0,.12,0,.64-.08.95.22.74.83-2.94,8.26-2.74,11.99,1.23,11.99,5.07,0,6.71-8.52,4.09-12.94-.33-.55-.19-.77.45-.68,1.85.24,3.62-.39,4.96-1.47.5-.4.7-1.2.52-1.68s-.69-.49-1.23-.14c-1.25.81-2.88,1.15-4.4.97-.64-.08-.96-.74-.74-1.35.62-1.71,1.25-3.37,1.92-5.1.23-.6.95-1.09,1.59-1.09h2.34c.64,0,.99-.49.78-1.1h.02ZM93.45,210.13c-.86,0-1.42-.68-1.42-2.01,0-2.16,1.54-4.97,3.14-4.97.92,0,1.39.83,1.39,1.98,0,2.25-1.57,5-3.11,5ZM104,208.74c.21-.61.59-.61.75,0,.93,3.6.39,9.07-1.96,9.07-1.74,0-.59-3.98,1.21-9.08h0Z"/>
      </g>
      <g>
        <path class="cls-1" d="M93.59,77.74c-1.71,5.3-3.56,10.81-5.2,16.15-.19.62-.36.59-.39-.05-.22-5.31-.38-10.78-.44-16.05,0-.64-.54-1.17-1.18-1.17h-1.49c-.64,0-1.34.49-1.56,1.1-2.46,6.96-4.79,13.92-7.1,20.88-.2.61.16,1.11.8,1.11h.93c.64,0,1.32-.5,1.52-1.11,1.55-4.93,3.15-9.93,4.82-14.86.21-.61.38-.58.39.06.07,4.89.27,9.86.52,14.75.03.64.58,1.16,1.23,1.16h1.73c.64,0,1.32-.5,1.52-1.11,2.23-6.98,4.73-13.96,7.15-20.87.21-.61-.14-1.1-.78-1.1h-.93c-.64,0-1.33.5-1.52,1.11h-.02Z"/>
        <path class="cls-1" d="M121.99,88.54c.13-.67.21-1.36.24-2.05.03-.64-.52-1.16-1.17-1.16h-.84c-.64,0-1.15.52-1.18,1.16-.26,4.3-2.58,7.92-4.08,7.92-.71,0-.92-.5-.92-1.09,0-1.39,1.03-4.36,1.88-6.89.21-.61-.15-1.1-.8-1.1h-.69c-.64,0-1.33.5-1.52,1.11-1.11,3.48-2.52,7.95-4.42,7.95-.59,0-.83-.44-.83-1.15,0-1.7,1.08-4.43,2.2-6.85.27-.58-.02-1.05-.67-1.05h-.87c-.64,0-1.41.46-1.68,1.05-.54,1.18-1.05,2.52-1.43,3.79-.18.62-.57,1.57-.96,2.08-1.41,1.85-2.86,2.57-4.85,2.57-1.12,0-1.88-.3-2.32-.84-.41-.49.05-.93.69-.9,2.77.11,5.81-1.48,5.81-4.56,0-1.78-1.25-3.49-3.59-3.49-3.85,0-6.46,3.7-6.46,7.58,0,3.08,2.28,4.74,5.22,4.74,2.24,0,3.85-.63,5.1-1.62.51-.4.95-.26,1.29.29.5.83,1.36,1.35,2.61,1.35s2.21-.5,3.01-1.31c.45-.46.82-.37,1.19.15.48.68,1.28,1.16,2.47,1.16,2.31,0,4.46-1.78,5.91-4.35.32-.56,1.05-.91,1.69-.94,1.38-.05,2.65-.69,3.48-1.45.47-.44.42-1.24.03-1.66s-.95-.28-1.46.12c-.36.29-.77.47-1.19.56-.63.13-1.02-.49-.9-1.12h0ZM100.8,88.64c-.02,1.3-1.43,2.2-2.96,2.41-.64.09-1.08-.5-.84-1.1.56-1.43,1.6-2.46,2.79-2.46.65,0,1.04.47,1.01,1.15Z"/>
        <path class="cls-1" d="M139.59,77.58c-2.06,2.98-4.2,6.2-6.19,9.17-.36.54-.7.45-.75-.19-.24-2.85-.43-5.92-.58-8.77-.03-.64-.58-1.16-1.23-1.16h-.99c-.64,0-1.12.52-1.06,1.16.37,4,.7,8.17,1.13,12.15.07.64-.03,1.65-.24,2.26-.7,2.08-1.51,4.33-2.26,6.41-.22.61.13,1.1.77,1.1h1.05c.64,0,1.33-.49,1.54-1.11.65-1.95,1.36-4.09,2.05-6.05.21-.61.7-1.52,1.07-2.05,3.05-4.26,6.26-8.69,9.42-12.94.38-.52.17-.94-.47-.94h-1.43c-.64,0-1.47.43-1.83.96Z"/>
        <path class="cls-1" d="M166.19,94.51c-.48-.4.02-1.03.64-1.21,2.52-.71,4.64-2.85,4.64-5.38,0-1.66-1.16-2.9-2.94-2.9-1.16,0-2.38.65-3.35,1.65-.45.46-.56.41-.33-.19.83-2.19,1.79-4.74,2.64-6.94.23-.6-.1-1.09-.75-1.09h-.9c-.64,0-1.34.49-1.55,1.1-1.22,3.55-2.44,7.09-3.65,10.63-.21.61-.65,1.55-1.02,2.07-.96,1.33-1.94,2.24-2.63,2.24-.39,0-.62-.3-.62-.77,0-1.18,1.31-4.31,2.42-6.73.27-.59-.03-1.04-.68-1.06-.71-.02-1.55-.07-2.33-.14-.64-.06-1.05-.45-.94-.82s-.33-.68-.97-.68h-.39c-.64,0-1.29.51-1.49,1.12-.69,2.2-1.58,3.77-2.78,4.65-.52.38-.98.28-.95-.06.01-.21.02-.42.02-.62,0-2.19-1.36-4.35-3.97-4.35-3.94,0-6.7,3.88-6.7,7.99,0,2.49,1.54,4.32,4.06,4.32,2.17,0,3.92-1.17,5.07-2.84.37-.53,1.12-1.06,1.73-1.25,1.8-.56,3.36-1.9,4.63-4.08.32-.56.91-.95,1.37-.88s.62.54.35,1.12c-.9,1.96-1.59,3.56-1.59,5.13s.98,2.81,2.79,2.81c.53,0,1.07-.15,1.59-.42.57-.29.92-.46.85-.25s.39.38,1.04.37h.66c.64-.01,1.31-.52,1.51-1.13,1.3-4.03,3.32-8.27,5.74-8.27.62,0,1.01.44,1.01.98,0,1.23-1.55,2.94-3.65,3.51-.62.17-1.3.69-1.35,1.33-.17,2.28,1.13,3.89,3.2,3.89,4.66,0,6.62-2.72,8.21-5.74.3-.57.23-1.36-.13-1.76s-.9-.26-1.21.31c-1.88,3.42-3.59,4.68-6.22,4.68-.49,0-.83-.11-1.06-.31l-.02-.03ZM142.08,94.62c-.86,0-1.42-.68-1.42-2.01,0-2.16,1.54-4.97,3.14-4.97.92,0,1.39.83,1.39,1.98,0,2.25-1.57,5-3.11,5Z"/>
        <path class="cls-1" d="M180.42,92.52c0-5.62,3.5-12.96,7.41-12.96,1.68,0,2.7,1.59,2.24,3.97-.12.63.21,1.12.86,1.12h1.13c.64,0,1.33-.5,1.44-1.13.71-4.01-1.42-7.18-5.16-7.18-6.79,0-11.39,9.44-11.39,16.4,0,4.94,2.91,7.28,6.08,7.28,3.6,0,6.18-2.24,7.65-5.12.29-.57,0-1.27-.6-1.52l-.76-.32c-.59-.25-1.3.01-1.63.56-1.12,1.87-2.49,3.12-4.16,3.12-2.08,0-3.11-1.6-3.11-4.2v-.02Z"/>
        <path class="cls-1" d="M196.66,83.76c1.25,0,2.43-1.39,2.43-2.69,0-.89-.65-1.54-1.54-1.54-1.28,0-2.43,1.27-2.43,2.66,0,.89.56,1.57,1.54,1.57Z"/>
        <path class="cls-1" d="M219.06,90.19c-1.23,2.3-2.52,3.74-4.1,4.79-.54.35-.84.1-.63-.51.92-2.68,1.78-5.25,2.74-8.04.21-.61-.14-1.1-.79-1.1h-.75c-.64,0-1.33.5-1.52,1.11-.98,3.1-2.14,6.67-4.12,6.67-1.79,0-.67-3.43.63-6.7.24-.6-.09-1.08-.73-1.08h-.78c-.64,0-1.37.48-1.6,1.08-.47,1.23-.86,2.4-1.13,3.47-.16.62-.51,1.59-.87,2.12-1.06,1.54-2.12,2.5-2.88,2.5-1.37,0-1.45-1.4.03-5.74.21-.61.91-1.1,1.55-1.1h.19c.64,0,1.34-.49,1.56-1.1l.05-.14c.22-.61-.13-1.1-.78-1.1h-.16c-.64,0-.98-.49-.74-1.09s.5-1.26.77-1.95c.24-.6-.09-1.08-.73-1.08h-.75c-.64,0-1.35.49-1.58,1.09l-.72,1.93c-.23.6-.7,1.09-1.06,1.09s-.82.49-1.03,1.1l-.05.13c-.21.61-.09,1.1.26,1.1s.47.49.27,1.11c-.11.36-.22.71-.32,1.06-.18.62-.56,1.58-.93,2.11-1.08,1.57-2.16,2.56-2.93,2.56-1.48,0-.04-3.56,1.67-8.08.23-.6-.11-1.09-.76-1.09h-.75c-.64,0-1.35.49-1.58,1.09-2.17,5.81-3.86,10.92.47,10.92,1.15,0,2.28-.68,3.3-1.66.46-.45.83-.31,1.11.27.43.88,1.27,1.39,2.68,1.39s2.69-.96,3.84-2.24c.43-.48.93-.37,1.44.02.45.34,1.07.53,1.89.53.74,0,1.49-.27,2.08-.69.53-.37.65-.33.44.28l-.12.34c-.21.61-.9,1.17-1.54,1.28-3.53.61-7.48,1.98-7.48,5.15,0,1.54,1.25,2.87,3.71,2.87,2.86,0,5.2-1.93,6.69-5.37.26-.59.92-1.26,1.51-1.53,2.91-1.35,4.91-3.62,6.36-6.38.3-.57.21-1.37-.16-1.76s-.89-.24-1.19.33l.02.04ZM205.05,101.61c0-1.16,1.94-2.11,3.86-2.51.63-.13.95.3.63.86-1.03,1.79-2.26,2.54-3.42,2.54-.74,0-1.07-.38-1.07-.89Z"/>
      </g>
    </g>
  </g>
</svg>